/* XPM */
static char * bitcoin128_xpm[] = {
"128 128 2 1",
" 	c None",
".	c #F7941E",
"                                                                                                                                ",
"                                                                                                                                ",
"                                                                                                                                ",
"                                                                                                                                ",
"                                                                                                                                ",
"                                                                                                                                ",
"                                                                                                                                ",
"                                                         ................                                                       ",
"                                                   ...........................                                                  ",
"                                                ..................................                                              ",
"                                             .......................................                                            ",
"                                          .............................................                                         ",
"                                        .................................................                                       ",
"                                      .....................................................                                     ",
"                                    .........................................................                                   ",
"                                   ............................................................                                 ",
"                                 ...............................................................                                ",
"                                ..................................................................                              ",
"                              .....................................................................                             ",
"                             ..........................                   ..........................                            ",
"                            .......................                           .......................                           ",
"                           ......................                                ......................                         ",
"                          ....................                                     .....................                        ",
"                         ...................                                         ....................                       ",
"                        ..................                                             ...................                      ",
"                       ..................            .....          .....                ..................                     ",
"                      .................              .....          .....                 ..................                    ",
"                     .................               .....          .....                   ................                    ",
"                    ................                 .....          .....                    ................                   ",
"                    ...............                  .....          .....                     ................                  ",
"                   ...............                   .....          .....                      ................                 ",
"                  ...............                    .....          .....                       ...............                 ",
"                 ...............                     .....          .....                        ...............                ",
"                 ..............                      .....          .....                         ...............               ",
"                ..............                       .....          .....                          ..............               ",
"               ..............                        .....          .....                           ..............              ",
"               ..............              ................................                          .............              ",
"              ..............               .....................................                      .............             ",
"              .............                .......................................                    .............             ",
"             ..............                .........................................                   .............            ",
"             .............                 ..........................................                   ............            ",
"            .............                     ................      ..................                  .............           ",
"            .............                      ..............         ................                   ............           ",
"            ............                        .............           ...............                  .............          ",
"           .............                        .............            ..............                   ............          ",
"           ............                          ............             .............                   ............          ",
"           ............                          ............             ..............                   ............         ",
"          ............                           ............             ..............                   ............         ",
"          ............                           ............              .............                   ............         ",
"          ............                           ............              .............                    ............        ",
"          ...........                            ............              .............                    ............        ",
"         ............                            ............              ............                     ............        ",
"         ............                            ............              ............                                         ",
"         ............                            ............              ............                                         ",
"         ...........                             ............             ............                                          ",
"         ...........                             ............             ............                                          ",
"        ............                             ............            ............                                           ",
"        ............                             ............            ...........                                            ",
"        ............                             ............          ............                                             ",
"        ............                             ............         ...........                                               ",
"        ............                             ..............................                                                 ",
"        ...........                              ............................                                                   ",
"        ...........                              .................................                                              ",
"        ...........                              ...................................                                            ",
"        ...........                              .....................................                                          ",
"        ...........                              ......................................                                         ",
"        ...........                              ............         ..................                                        ",
"        ............                             ............            ................                                       ",
"        ............                             ............             ................                                      ",
"        ............                             ............              ...............                                      ",
"        ............                             ............               ..............                                      ",
"        ............                             ............               ...............                                     ",
"         ...........                             ............                ..............                  ............       ",
"         ...........                             ............                ..............                  ............       ",
"         ............                            ............                ..............                  ...........        ",
"         ............                            ............                ..............                  ...........        ",
"         ............                            ............                ..............                 ............        ",
"          ...........                            ............                ..............                 ............        ",
"          ............                           ............                ..............                 ............        ",
"          ............                           ............                ..............                ............         ",
"          .............                          ............                ..............                ............         ",
"           ............                          .............              ..............                 ............         ",
"           ............                          .............              ..............                ............          ",
"           .............                        ..............             ..............                 ............          ",
"            ............                        ..............            ...............                .............          ",
"            .............                      ................          ...............                 ............           ",
"             ............                     ...................      ................                 .............           ",
"             .............                 ...........................................                 .............            ",
"             ..............                .........................................                   .............            ",
"              .............                .......................................                    .............             ",
"              ..............               ....................................                      ..............             ",
"               ..............              ...............................                           .............              ",
"                .............                        .....          .....                           ..............              ",
"                ..............                       .....          .....                          ..............               ",
"                 ..............                      .....          .....                         ...............               ",
"                 ...............                     .....          .....                        ...............                ",
"                  ...............                    .....          .....                       ...............                 ",
"                   ...............                   .....          .....                      ................                 ",
"                    ...............                  .....          .....                     ................                  ",
"                    ................                 .....          .....                    ................                   ",
"                     .................               .....          .....                  .................                    ",
"                      .................              .....          .....                 .................                     ",
"                       ..................             ....          .....                ..................                     ",
"                        ..................                                             ...................                      ",
"                         ...................                                         ....................                       ",
"                          ....................                                     .....................                        ",
"                           ......................                               ......................                          ",
"                            ........................                          .......................                           ",
"                             ...........................                  ..........................                            ",
"                               ....................................................................                             ",
"                                .................................................................                               ",
"                                 ...............................................................                                ",
"                                   ...........................................................                                  ",
"                                     ........................................................                                   ",
"                                      .....................................................                                     ",
"                                        .................................................                                       ",
"                                           ............................................                                         ",
"                                             .......................................                                            ",
"                                                .................................                                               ",
"                                                    .........................                                                   ",
"                                                          ..............                                                        ",
"                                                                                                                                ",
"                                                                                                                                ",
"                                                                                                                                ",
"                                                                                                                                ",
"                                                                                                                                ",
"                                                                                                                                ",
"                                                                                                                                "};
