/* XPM */
static char * bitcoin16_xpm[] = {
"16 16 2 1",
" 	c None",
".	c #F7941E",
"                ",
"      .....     ",
"    .... ....   ",
"   ..       ..  ",
"  ..   . .   .. ",
"  .   .....   . ",
" ..   ..  ..  ..",
" ..   ..  .     ",
" .    .....     ",
" ..   ..  ..    ",
" ..   ..  ..  ..",
"  .   .....   . ",
"  ..   . .   .. ",
"   ..       ..  ",
"    .... ....   ",
"      .....     "};
