/* XPM */
static char * bitcoin32_xpm[] = {
"32 32 2 1",
" 	c None",
".	c #F7941E",
"                                ",
"            ........            ",
"          .............         ",
"        ................        ",
"      .......      .......      ",
"     .....            .....     ",
"    .....    .   .     .....    ",
"    ....     .   .       ....   ",
"   ....      ..  .       ....   ",
"   ...    ...........     ....  ",
"  ...       ...   ....     ...  ",
"  ...       ...    ...     ...  ",
" ....       ...    ...      ... ",
" ...        ...    ...          ",
" ...        ...   ...           ",
" ...        ........            ",
" ...        ...  .....          ",
" ...        ...    ....         ",
" ...        ...    ....     ... ",
" ....       ...    ....     ... ",
"  ...       ...    ....    ...  ",
"  ...       ....   ...     ...  ",
"   ...    ...........     ....  ",
"   ....      .   .       ....   ",
"    ....     .   .      .....   ",
"    .....    .   .     .....    ",
"     .....            .....     ",
"      .......      .......      ",
"        ................        ",
"         ..............         ",
"            ........            ",
"                                "};
