/* XPM */
static char * bitcoin64_xpm[] = {
"64 64 2 1",
" 	c None",
".	c #F7941E",
"                                                                ",
"                                                                ",
"                                                                ",
"                                                                ",
"                           ...........                          ",
"                       ...................                      ",
"                     .......................                    ",
"                   ...........................                  ",
"                 ...............................                ",
"                ..................................              ",
"              ............             ............             ",
"             ...........                  ..........            ",
"            ..........                      .........           ",
"           .........       ..     ...        .........          ",
"          .........        ..     ...          ........         ",
"          .......          ..     ...           ........        ",
"         .......           ..     ...            .......        ",
"        .......            ..     ...             .......       ",
"        .......       ...............              .......      ",
"       .......        ...................          .......      ",
"       ......         .....................         .......     ",
"      .......          ........    ........          ......     ",
"      ......            .......      .......         ......     ",
"     .......             ......      .......          ......    ",
"     ......              ......       ......          ......    ",
"     ......              ......       ......          ......    ",
"     ......              ......       ......                    ",
"    ......               ......      .......                    ",
"    ......               ......      ......                     ",
"    ......               ......     ......                      ",
"    ......               ......   .......                       ",
"    ......               ................                       ",
"    ......               ..................                     ",
"    ......               ......   ..........                    ",
"    ......               ......      ........                   ",
"    ......               ......       .......                   ",
"    ......               ......        .......                  ",
"    ......               ......        .......         ......   ",
"     ......              ......        .......         ......   ",
"     ......              ......        .......        ......    ",
"     ......              ......        .......        ......    ",
"     .......             ......       .......         ......    ",
"      ......            .......       .......        ......     ",
"      .......          .........     .......         ......     ",
"       ......         .....................         .......     ",
"       .......        ...................          .......      ",
"        .......       .........   ...              .......      ",
"        .......            ..     ...             .......       ",
"         .......           ..     ...            .......        ",
"          .......          ..     ...           ........        ",
"          .........        ..     ...         .........         ",
"           .........       ..     ...        .........          ",
"            ..........                     ..........           ",
"             ...........                 ...........            ",
"              .............           .............             ",
"                .................................               ",
"                 ...............................                ",
"                   ...........................                  ",
"                     .......................                    ",
"                       ...................                      ",
"                           ...........                          ",
"                                                                ",
"                                                                ",
"                                                                "};
